<svg width="54" height="60" viewBox="0 0 54 60" fill="none" xmlns="http://www.w3.org/2000/svg">
<path d="M53.1278 6.63636L49.6347 0.586196C49.3111 0.0256666 48.5942 -0.166411 48.0338 0.157273L46.0236 1.31783L45.7019 0.760578C45.3785 0.200166 44.6621 0.00797056 44.1011 0.331655C43.5406 0.655223 43.3485 1.37197 43.6722 1.9325L43.9939 2.48975L37.1456 6.44358C36.5851 6.76714 36.393 7.48389 36.7167 8.04442C37.0404 8.60495 37.7568 8.79715 38.3176 8.47334L48.1909 2.773L50.5121 6.79339L22.2421 23.115L19.9209 19.0946L29.1836 13.7468C29.7441 13.4232 29.9362 12.7064 29.6125 12.1459C29.289 11.5854 28.5721 11.3934 28.0117 11.717L7.3445 23.6493C6.15477 24.3361 5.3036 25.4453 4.94804 26.7723C4.59248 28.0993 4.77495 29.4853 5.46193 30.6752L5.51994 30.7756C4.43591 30.3773 3.4965 29.6112 2.90222 28.5816C2.57854 28.0211 1.86191 27.829 1.30138 28.1527C0.740846 28.4763 0.548768 29.193 0.872453 29.7536C1.89214 31.5198 3.60326 32.7586 5.53635 33.224C4.22684 34.5009 3.19297 36.0392 2.50459 37.7506C1.58123 40.0464 1.32118 42.5478 1.75268 44.9843L3.85991 56.8842C4.07437 58.0952 4.86788 59.1281 5.98261 59.6474C6.48853 59.8831 7.03277 60 7.57607 60C8.22977 60 8.88206 59.8306 9.46369 59.4947L17.3908 54.918C18.2639 54.4139 18.8884 53.6 19.1494 52.6262C19.4104 51.6523 19.2764 50.6352 18.7723 49.7621L15.5276 44.1422C15.0915 43.3869 14.8994 42.5569 14.9253 41.7434L15.2799 42.3576C15.9129 43.4538 16.9348 44.2379 18.1575 44.5656C18.5658 44.675 18.9802 44.7292 19.3917 44.7292C20.2129 44.7292 21.0233 44.5138 21.7535 44.0923L25.2086 42.0975C26.3048 41.4646 27.0889 40.4426 27.4166 39.22C27.7442 37.9972 27.576 36.7202 26.9431 35.6239L25.5154 33.151L26.3911 32.6454C26.6603 32.49 26.8568 32.234 26.9371 31.9338C27.0177 31.6336 26.9755 31.3136 26.8201 31.0445L26.1585 29.8986L43.2941 20.0054C43.8546 19.6818 44.0467 18.9651 43.723 18.4046L41.5645 14.6658L52.6988 8.23744C52.968 8.08204 53.1644 7.82609 53.2448 7.52585C53.3254 7.22537 53.2832 6.90555 53.1278 6.63636ZM7.21208 27.3789C7.40556 26.6566 7.86882 26.053 8.51642 25.679L17.8912 20.2665L19.2144 22.5583L11.7303 26.8793C11.1698 27.2029 10.9777 27.9196 11.3014 28.4801C11.5184 28.8561 11.9123 29.0662 12.3173 29.0662C12.5161 29.0662 12.7176 29.0156 12.9022 28.9091L20.3863 24.5881L21.7094 26.8798L14.2253 31.2008C13.6648 31.5243 13.4727 32.2411 13.7964 32.8016C14.0134 33.1776 14.4073 33.3877 14.8123 33.3877C15.0111 33.3877 15.2127 33.3371 15.3972 33.2305L22.8814 28.9095L24.2046 31.2013L14.8298 36.6139C14.1822 36.9878 13.4278 37.0872 12.7055 36.8935C11.9832 36.7 11.3795 36.2367 11.0056 35.5891L7.49181 29.5031C7.11774 28.8556 7.01847 28.1011 7.21208 27.3789ZM16.7424 50.934C16.9334 51.265 16.9841 51.6504 16.8852 52.0196C16.7863 52.3886 16.5497 52.6971 16.2188 52.8882L8.29165 57.4649C7.88206 57.7013 7.40111 57.7225 6.9723 57.5227C6.5435 57.3229 6.25028 56.9413 6.16778 56.4755L4.06055 44.5756C3.39513 40.8178 4.79475 36.9458 7.65037 34.4656L8.9757 36.7611C9.86284 38.2977 11.4286 39.2026 13.0781 39.3183C12.3199 41.2093 12.4024 43.4169 13.4978 45.3141L16.7424 50.934ZM24.9134 36.7957C25.5737 37.9395 25.1804 39.4073 24.0366 40.0676L20.5816 42.0624C20.0275 42.3823 19.3821 42.4671 18.7641 42.3017C18.1461 42.1361 17.6295 41.7397 17.3097 41.1858L16.4119 39.6306L17.9394 40.04C18.041 40.0672 18.1431 40.0802 18.2435 40.0802C18.7609 40.0802 19.2345 39.7348 19.3747 39.2113C19.5423 38.5861 19.1713 37.9435 18.5461 37.7759L17.835 37.5854L23.4857 34.3229L24.9134 36.7957ZM24.9867 27.8688L23.4141 25.1449L26.138 23.5723L27.7106 26.2962L24.9867 27.8688ZM29.7404 25.1242L28.1678 22.4003L39.5348 15.8376L41.1074 18.5615L29.7404 25.1242Z" fill="black"/>
</svg>
